<svg width="32" height="32" viewBox="0 0 32 32" fill="none" xmlns="http://www.w3.org/2000/svg">
<path d="M24 24C24.5304 24 25.0392 23.7893 25.4142 23.4142C25.7893 23.0391 26 22.5304 26 22V17.116C26 16.5856 25.7893 16.0769 25.4142 15.7018C25.0392 15.3267 24.5304 15.116 24 15.116H21.224C21.224 14.414 21.266 13.71 21.348 13.008C21.472 12.264 21.68 11.602 21.968 11.024C22.258 10.444 22.63 9.99 23.086 9.658C23.54 9.286 24.118 9.1 24.822 9.1V6C23.664 6 22.652 6.248 21.782 6.744C20.9196 7.23497 20.1781 7.9129 19.612 8.728C19.0439 9.62663 18.6251 10.6114 18.372 11.644C18.117 12.7835 17.9922 13.9483 18 15.116V22C18 22.5304 18.2107 23.0391 18.5858 23.4142C18.9609 23.7893 19.4696 24 20 24H24ZM12 24C12.5304 24 13.0392 23.7893 13.4142 23.4142C13.7893 23.0391 14 22.5304 14 22V17.116C14 16.5856 13.7893 16.0769 13.4142 15.7018C13.0392 15.3267 12.5304 15.116 12 15.116H9.22401C9.22401 14.414 9.26601 13.71 9.34801 13.008C9.47201 12.264 9.68001 11.602 9.96801 11.024C10.258 10.444 10.63 9.99 11.086 9.658C11.54 9.286 12.118 9.1 12.822 9.1V6C11.664 6 10.652 6.248 9.78201 6.744C8.91958 7.23497 8.1781 7.9129 7.61201 8.728C7.04386 9.62663 6.6251 10.6114 6.37201 11.644C6.11698 12.7835 5.99218 13.9483 6.00001 15.116V22C6.00001 22.5304 6.21072 23.0391 6.5858 23.4142C6.96087 23.7893 7.46958 24 8.00001 24H12Z" fill="#0D448C"/>
</svg>
